<svg width="24" height="22" viewBox="0 0 24 22" fill="none" xmlns="http://www.w3.org/2000/svg">
<path fill-rule="evenodd" clip-rule="evenodd" d="M12.0001 15.8487C11.3205 15.8487 10.6622 15.7589 10.038 15.5914L11.9987 19.6255L13.9589 15.5923C13.3357 15.7592 12.6785 15.8487 12.0001 15.8487Z" fill="white"/>
<path fill-rule="evenodd" clip-rule="evenodd" d="M2.46057 18.4107C2.28479 18.1025 2.19558 17.746 2.22193 17.3723L2.29819 16.3286L1.56858 16.2724C0.594379 17.7428 0.026113 19.4495 0.00361295 21.2684C-0.0381058 21.66 0.286785 22 0.703176 22L7.87258 21.9992C6.83715 21.3663 2.9288 19.2315 2.46057 18.4107Z" fill="white"/>
<path fill-rule="evenodd" clip-rule="evenodd" d="M21.6992 16.3286L21.7755 17.3722C21.8018 17.7459 21.7126 18.1025 21.5368 18.4107C21.3623 18.7165 21.1011 18.9743 20.7817 19.1532L16.1264 21.9982L23.297 21.9973C23.6784 22.0008 23.9991 21.7012 23.9973 21.3329C23.9876 19.4897 23.4173 17.76 22.4315 16.2721L21.6992 16.3286Z" fill="white"/>
<path fill-rule="evenodd" clip-rule="evenodd" d="M11.1469 21.0452L8.08956 14.7549C7.66079 14.4921 7.26306 14.1876 6.90311 13.8474C6.07557 13.0654 5.44707 12.095 5.09724 11.0118L0.324848 13.7545C-0.206059 14.0487 -0.0352933 14.8136 0.574645 14.8593L3.79435 15.1116L3.6227 17.4605C3.60605 17.6966 3.73726 17.9098 3.9414 18.0192L10.2978 21.9038C10.5896 22.0829 10.9799 22.0045 11.1694 21.7288C11.2916 21.5509 11.3005 21.3344 11.2132 21.1551L11.1469 21.0452Z" fill="white"/>
<path fill-rule="evenodd" clip-rule="evenodd" d="M20.3747 17.4605L20.203 15.1116L23.4205 14.7735C24.0304 14.7278 24.2207 13.9612 23.6898 13.667L18.9026 11.0132C18.5526 12.0958 17.9243 13.0657 17.0971 13.8474C16.736 14.1886 16.337 14.494 15.9066 14.7574L12.8505 21.0452L12.7841 21.1552C12.6968 21.3345 12.7057 21.551 12.8279 21.7288C13.0175 22.0046 13.4077 22.0829 13.6995 21.9039L20.056 18.0193C20.2602 17.9098 20.3913 17.6966 20.3747 17.4605Z" fill="white"/>
<path fill-rule="evenodd" clip-rule="evenodd" d="M12.0001 14.5197C15.1961 14.5197 17.8085 12.051 17.8085 9.03083V7.78079H6.19164V9.03083C6.19164 12.051 8.80403 14.5197 12.0001 14.5197Z" fill="white"/>
<path fill-rule="evenodd" clip-rule="evenodd" d="M4.78131 6.46982C9.59385 6.46982 14.4063 6.46982 19.2189 6.46982C19.6072 6.46982 19.922 6.17233 19.922 5.80538C19.922 5.43843 19.6072 5.14093 19.2189 5.14093H17.984C17.582 3.5766 17.2732 1.65476 16.1341 0.578221C15.1163 -0.383543 14.3842 0.0820571 13.4812 0.656316C13.055 0.92741 12.5642 1.23952 12.0021 1.23952C11.4551 1.23952 10.9786 0.925904 10.563 0.652374C9.6621 0.0594216 8.92874 -0.423188 7.86908 0.578177C6.69452 1.68811 6.34736 3.56664 5.9981 5.14098H4.78136C4.39304 5.14098 4.07823 5.43847 4.07823 5.80542C4.07818 6.17233 4.393 6.46982 4.78131 6.46982Z" fill="white"/>
</svg>
